<svg width="23" height="22" viewBox="0 0 23 22" fill="none" xmlns="http://www.w3.org/2000/svg">
<path d="M11.4611 15.1943C13.8366 15.1943 15.7624 13.2686 15.7624 10.8931C15.7624 8.51753 13.8366 6.5918 11.4611 6.5918C9.08559 6.5918 7.15985 8.51753 7.15985 10.8931C7.15985 13.2686 9.08559 15.1943 11.4611 15.1943Z" stroke="#696969" stroke-width="1.7205" stroke-miterlimit="10"/>
<path d="M16.1924 1H6.72968C3.87906 1 1.56818 3.31089 1.56818 6.16151V15.6243C1.56818 18.4749 3.87906 20.7858 6.72968 20.7858H16.1924C19.0431 20.7858 21.354 18.4749 21.354 15.6243V6.16151C21.354 3.31089 19.0431 1 16.1924 1Z" stroke="#696969" stroke-width="1.7205" stroke-linecap="round" stroke-linejoin="round"/>
<path d="M17.0527 6.59198C17.7654 6.59198 18.3431 6.01426 18.3431 5.30161C18.3431 4.58895 17.7654 4.01123 17.0527 4.01123C16.3401 4.01123 15.7624 4.58895 15.7624 5.30161C15.7624 6.01426 16.3401 6.59198 17.0527 6.59198Z" fill="#696969"/>
</svg>
