<svg width="22" height="22" viewBox="0 0 22 22" fill="none" xmlns="http://www.w3.org/2000/svg">
<path d="M19.9255 1H1.86025C1.38515 1 1 1.38515 1 1.86025V19.9255C1 20.4006 1.38515 20.7858 1.86025 20.7858H19.9255C20.4006 20.7858 20.7858 20.4006 20.7858 19.9255V1.86025C20.7858 1.38515 20.4006 1 19.9255 1Z" stroke="#696969" stroke-width="1.7205" stroke-linecap="round" stroke-linejoin="round"/>
<path d="M10.0327 9.17236V16.0544" stroke="#696969" stroke-width="1.7205" stroke-linecap="round" stroke-linejoin="round"/>
<path d="M6.59164 9.17236V16.0544" stroke="#696969" stroke-width="1.7205" stroke-linecap="round" stroke-linejoin="round"/>
<path d="M10.0327 12.1832C10.0327 11.3847 10.3499 10.6189 10.9145 10.0542C11.4792 9.48958 12.245 9.17236 13.0435 9.17236C13.8421 9.17236 14.6079 9.48958 15.1725 10.0542C15.7372 10.6189 16.0544 11.3847 16.0544 12.1832V16.0544" stroke="#696969" stroke-width="1.7205" stroke-linecap="round" stroke-linejoin="round"/>
<path d="M6.59165 7.02167C7.3043 7.02167 7.88202 6.44395 7.88202 5.73129C7.88202 5.01864 7.3043 4.44092 6.59165 4.44092C5.87899 4.44092 5.30127 5.01864 5.30127 5.73129C5.30127 6.44395 5.87899 7.02167 6.59165 7.02167Z" fill="#696969"/>
</svg>
