<svg width="25" height="21" viewBox="0 0 25 21" fill="none" xmlns="http://www.w3.org/2000/svg">
<path d="M11.5247 5.16151C11.5247 2.79582 13.514 0.827995 15.8797 0.860254C16.7082 0.869819 17.5162 1.11846 18.2068 1.57628C18.8973 2.0341 19.441 2.68162 19.7723 3.44101H23.5682L20.0949 6.91427C19.8708 10.4032 18.3263 13.6758 15.7756 16.0668C13.2248 18.4577 9.85928 19.7875 6.36315 19.7858C2.92215 19.7858 2.0619 18.4954 2.0619 18.4954C2.0619 18.4954 5.5029 17.205 7.2234 14.6243C7.2234 14.6243 0.341394 11.1833 2.0619 1.72051C2.0619 1.72051 6.36315 6.02176 11.5247 6.88201V5.16151Z" stroke="#696969" stroke-width="1.7205" stroke-linecap="round" stroke-linejoin="round"/>
</svg>
