<svg width="200" height="56" viewBox="0 0 200 56" fill="none" xmlns="http://www.w3.org/2000/svg">
<g clip-path="url(#clip0_212_4526)">
<path d="M104.613 30.5205V33.786H101.061V30.5205H104.613Z" fill="black"/>
<path d="M27.5827 33.7858V25.5394H23.9995L24.022 23.1797H27.5827V22.4754C27.5682 21.6488 27.8319 20.8384 28.3377 20.1548C28.8411 19.476 29.5549 18.9479 30.4793 18.5706C31.4714 18.1779 32.5431 17.9835 33.6231 18.0005C34.57 17.9902 35.5128 18.116 36.4175 18.3734C37.1871 18.5861 37.9008 18.9422 38.5141 19.4195C39.0692 19.8691 39.4062 20.3765 39.5254 20.9418L36.0535 21.7917C35.9146 21.3857 35.6251 21.0374 35.2355 20.8075C34.8042 20.5474 34.2972 20.4138 33.7816 20.4244C33.0617 20.4244 32.5097 20.6385 32.1254 21.0667C31.7411 21.495 31.5494 22.054 31.5501 22.7439V23.1797H38.7411V25.5394H31.5501V33.7848L27.5827 33.7858Z" fill="black"/>
<path d="M41.5781 33.7868V18.4146H45.522V33.7868H41.5781Z" fill="black"/>
<path d="M130.325 18.0088V21.3899H126.33V18.0088H130.325Z" fill="black"/>
<path d="M156.707 18.0088V21.3899H152.711V18.0088H156.707Z" fill="black"/>
<path d="M107.103 33.7873V23.1811H111.07V25.9364C111.333 25.2974 111.753 24.723 112.298 24.2583C112.868 23.7791 113.534 23.4075 114.259 23.1646C115.071 22.8937 115.93 22.7603 116.795 22.7711C118.132 22.7711 119.304 23.0369 120.311 23.5684C121.308 24.0916 122.12 24.8669 122.652 25.8022C123.207 26.7613 123.485 27.8556 123.486 29.0852V33.7873H119.542V29.1885C119.557 28.4582 119.371 27.7363 119.003 27.089C118.662 26.4942 118.148 25.9989 117.516 25.6597C116.85 25.3136 116.095 25.1385 115.33 25.1526C114.565 25.1418 113.811 25.3167 113.143 25.6597C112.498 25.9967 111.968 26.4915 111.611 27.089C111.226 27.7399 111.033 28.4717 111.049 29.2123V33.7903L107.103 33.7873Z" fill="black"/>
<path d="M130.296 23.1816H126.33V33.7878H130.296V23.1816Z" fill="black"/>
<path d="M156.692 23.1816H152.726V37.961H156.692V23.1816Z" fill="black"/>
<path d="M133.589 33.7873V23.1811H137.555V25.9364C137.818 25.2974 138.239 24.723 138.784 24.2582C139.352 23.7792 140.017 23.4076 140.742 23.1646C141.554 22.8937 142.412 22.7604 143.276 22.7711C144.614 22.7711 145.786 23.0369 146.793 23.5684C147.791 24.0927 148.605 24.8695 149.137 25.8063C149.692 26.7654 149.97 27.8597 149.971 29.0893V33.7914H146.027V29.1885C146.042 28.4583 145.856 27.7364 145.489 27.089C145.149 26.4926 144.633 25.9963 144 25.6566C143.334 25.3103 142.579 25.1351 141.815 25.1495C141.05 25.1386 140.296 25.3135 139.628 25.6566C138.983 25.9947 138.453 26.4905 138.096 27.089C137.712 27.7397 137.518 28.4716 137.535 29.2122V33.7903L133.589 33.7873Z" fill="black"/>
<path d="M169.182 33.4559C167.95 33.9537 166.545 34.2025 164.968 34.2025C163.91 34.2167 162.857 34.0773 161.847 33.7894C160.922 33.514 160.204 33.1412 159.694 32.671C159.184 32.2008 158.928 31.6844 158.927 31.1219C158.927 30.5022 159.205 29.9291 159.761 29.4024C160.317 28.8757 161.093 28.442 162.09 28.1011C163.192 27.7425 164.34 27.5162 165.505 27.4278L171.207 27.0147C171.418 26.9923 171.62 26.9213 171.793 26.8082C171.868 26.7636 171.93 26.7025 171.974 26.6304C172.017 26.5583 172.04 26.4775 172.041 26.3951C172.041 26.1754 171.864 25.9651 171.512 25.7641C171.158 25.5638 170.678 25.4119 170.069 25.3076C169.411 25.2004 168.743 25.1485 168.074 25.1527C167.126 25.1543 166.179 25.2337 165.246 25.3902C164.346 25.5354 163.464 25.7574 162.61 26.0532C161.805 26.3376 161.168 26.645 160.699 26.9755L159.212 25.0494C159.811 24.6205 160.592 24.2301 161.555 23.8783C162.573 23.5115 163.626 23.2376 164.702 23.0604C165.813 22.869 166.942 22.7719 168.073 22.7702C169.415 22.7574 170.751 22.9283 172.038 23.2773C173.237 23.616 174.191 24.0979 174.902 24.7231C175.611 25.3482 175.965 26.0767 175.96 26.9083V33.7853H171.994V31.4678C171.352 32.2961 170.415 32.9587 169.182 33.4559ZM163.299 31.2706C163.57 31.4441 163.957 31.5742 164.46 31.6641C165.029 31.7594 165.606 31.8047 166.184 31.7993C167.134 31.8085 168.08 31.6934 168.993 31.4575C169.843 31.229 170.53 30.9216 171.056 30.5353C171.583 30.1491 171.899 29.7208 172.003 29.2506V28.8375L166.301 29.2506C165.703 29.296 165.112 29.3896 164.532 29.5304C164.097 29.6256 163.687 29.7982 163.325 30.0386C163.04 30.2451 162.897 30.4599 162.897 30.6809C162.897 30.9019 163.03 31.0981 163.299 31.2706Z" fill="black"/>
<path d="M70.5778 26.4739C71.1466 26.4858 71.6877 26.7018 72.0854 27.0758C72.4831 27.4498 72.7058 27.9519 72.7058 28.4749C72.7058 28.9978 72.4831 29.5 72.0854 29.8739C71.6877 30.2479 71.1466 30.4639 70.5778 30.4758H53.3665C52.7977 30.4639 52.2566 30.2479 51.8588 29.8739C51.4611 29.5 51.2385 28.9978 51.2385 28.4749C51.2385 27.9519 51.4611 27.4498 51.8588 27.0758C52.2566 26.7018 52.7977 26.4858 53.3665 26.4739H70.5778ZM70.5778 23.1692H53.3665C51.8374 23.1747 50.3727 23.7355 49.2917 24.7295C48.2107 25.7235 47.601 27.07 47.5957 28.4754C47.6002 29.8823 48.2102 31.2303 49.2925 32.2251C50.3748 33.2199 51.8415 33.7806 53.3721 33.7846H70.5778C72.1082 33.7803 73.5746 33.2195 74.6566 32.2247C75.7387 31.23 76.3486 29.8821 76.353 28.4754C76.3495 27.0683 75.74 25.7197 74.6578 24.7244C73.5756 23.7291 72.1087 23.1681 70.5778 23.1641V23.1692Z" fill="black"/>
<path d="M81.3551 33.7857L78.4102 23.1641H82.3428L84.59 32.1716L86.7946 23.1641H92.2798L94.5268 32.2748L96.7528 23.1641H100.641L97.8089 33.7857H91.6295L89.5598 24.8165L87.4685 33.7836L81.3551 33.7857Z" fill="black"/>
</g>
<defs>
<clipPath id="clip0_212_4526">
<rect width="152" height="20" fill="white" transform="translate(24 18)"/>
</clipPath>
</defs>
</svg>
